<svg xmlns="http://www.w3.org/2000/svg" height="24" width="24"><path d="M9 18H13Q13.425 18 13.713 17.712Q14 17.425 14 17V16L16 17.05V12.95L14 14V13Q14 12.575 13.713 12.287Q13.425 12 13 12H9Q8.575 12 8.288 12.287Q8 12.575 8 13V17Q8 17.425 8.288 17.712Q8.575 18 9 18ZM6 22Q5.175 22 4.588 21.413Q4 20.825 4 20V4Q4 3.175 4.588 2.587Q5.175 2 6 2H14L20 8V20Q20 20.825 19.413 21.413Q18.825 22 18 22ZM13 9V4H6Q6 4 6 4Q6 4 6 4V20Q6 20 6 20Q6 20 6 20H18Q18 20 18 20Q18 20 18 20V9ZM6 4V9V4V9V20Q6 20 6 20Q6 20 6 20Q6 20 6 20Q6 20 6 20V4Q6 4 6 4Q6 4 6 4Z"/></svg>